# xmcd
#
# Track frame offsets: 
#        150
#        25340
#        39149
#        70413
#        85461
#        112818
#        137676
#        155217
#        170479
#        189529
#        213871
#        241195
#        260111
#        277480
#        300955
#        327250
#
# Disc length: 4630 seconds
#
# Revision: 0
# Processed by: cddbd v1.5.1PL0 Copyright (c) Steve Scherf et al.
# Submitted via: ExactAudioCopy v0.95a5
#
DISCID=e5121410
DTITLE=Isley Brothers - Isley Brothers: The Ultimate Collection [CD
DTITLE=2)
DYEAR=2002
DGENRE=R&B/Soul
TTITLE0=That Lady
TTITLE1=Live It Up
TTITLE2=Midnight Sky
TTITLE3=Fight The Power
TTITLE4=Hope You Feel Better Love
TTITLE5=Who Loves You Better
TTITLE6=Harvest For The World
TTITLE7=The Pride
TTITLE8=Livin' In The Life
TTITLE9=Showdown
TTITLE10=Coolin' Me Out
TTITLE11=It's A Disco Night (Rock Don't Stop)
TTITLE12=Hurry Up And Wait
TTITLE13=Stone Cold Lover
TTITLE14=Colder Are My Nights
TTITLE15=8Th Wonder Of The World
EXTD=
EXTT0=
EXTT1=
EXTT2=
EXTT3=
EXTT4=
EXTT5=
EXTT6=
EXTT7=
EXTT8=
EXTT9=
EXTT10=
EXTT11=
EXTT12=
EXTT13=
EXTT14=
EXTT15=
PLAYORDER=
